# xmcd
#
# Track frame offsets:
#	150
#	17433
#	35914
#	54797
#	77207
#	91087
#	105394
#	118409
#	135794
#	156852
#	170615
#	190132
#	210077
#	226790
#
# Disc length: 3321 seconds
#
# Revision: 0
# Processed by: cddbd v1.5.2PL0 Copyright (c) Steve Scherf et al.
# Submitted via: EasyCDDAExtractor 11.9.9.666
#
DISCID=a00cf70e
DTITLE=Hal Ketchum - Father Time
DYEAR=2008
DGENRE=Country
TTITLE0=Invisible
TTITLE1=Yesterday's Gone
TTITLE2=Millionaire's Wife
TTITLE3=Million Dollar Baby
TTITLE4=Ordinary Day
TTITLE5=Continental Farewell
TTITLE6=Surrounded By Love
TTITLE7=The Day He Called Your Name
TTITLE8=The Preacher And Me
TTITLE9=If You Don't Love Me, Baby (Just Let Me Go)
TTITLE10=Sparrow
TTITLE11=Down Along The Gaudalupe
TTITLE12=Jersey Girl
TTITLE13=Strangest Dreams
EXTD=
EXTT0=
EXTT1=
EXTT2=
EXTT3=
EXTT4=
EXTT5=
EXTT6=
EXTT7=
EXTT8=
EXTT9=
EXTT10=
EXTT11=
EXTT12=
EXTT13=
PLAYORDER=
